<svg xmlns="http://www.w3.org/2000/svg" width="512" height="514" viewBox="0 0 512 514"><path d="M250 249L70 29h70l110 150L370 29h70z" fill="#dbdbdb" fill-rule="evenodd" stroke="#000"/><path d="M250 169l-60-90h130z" fill="#c6245e" fill-rule="evenodd" stroke="#000" stroke-opacity=".992"/><path d="M250 249L480 69v70L320 249l160 120v70z" fill="#dcdcdc" fill-rule="evenodd" stroke="#000"/><path d="M330 249l100-70v145z" fill="none" stroke="#000"/><path d="M250 249L70 479h70l110-160 120 160h70z" fill="#dcdcdc" fill-rule="evenodd" stroke="#000"/><path d="M250 329l-70 100h140z" fill="none" stroke="#000"/><path d="M250 249L30 69v70l150 110L30 369v70z" fill="#dcdcdc" fill-rule="evenodd" stroke="#000"/><path d="M70 179l100 70-100 80z" fill="none" stroke="#000"/><path d="M240 249L40 89v50l150 110L40 369v50l200-170z" fill="none" stroke="#000"/><path d="M90 39l160 200L420 39h-50L250 189 140 39z" fill="#dcdcdc" fill-rule="evenodd" stroke="#000"/><path d="M260 249L470 89v50L310 249l160 120v50zM250 259L90 469h50l110-160 120 160h50zM30 69l10 20zM30 139h10zM180 249h10zM240 249h20zM250 239v20zM30 369h10zM30 439l10-20zM70 29l20 10zM140 39V29zM250 189v-10zM370 29v10zM440 29l-20 10zM310 249h10zM470 139h10zM470 89l10-20-10 20zM470 369h10zM470 419l10 20zM420 469l20 10zM370 479v-10zM250 309v10zM140 469v10z" fill="none" stroke="#000"/><path d="M70 479l20-10z" fill="#3e7c3e" fill-rule="evenodd" stroke="#000"/><path d="M70.848 180.293c-.419 45.697-.3 91.4-.162 137.099.251 3.281-.329 7.006.589 10.049 32.533-26.083 65.21-52.071 97.703-78.155-31.217-22.539-62.808-44.567-94.417-66.554-1.226-.798-2.47-1.774-3.713-2.439z" fill="#3e7c3e" stroke="#3e7c3e" stroke-width=".437"/><path d="M249.969 330.184c-23.137 32.515-46.068 65.184-68.728 98.032 7.532.876 15.383.358 23.035.569 38.164.01 76.415.223 114.524-.225-21.79-32.002-44.085-63.666-66.427-95.287-.786-.947-1.553-2.458-2.404-3.089z" fill="#bc0000" fill-opacity=".996" stroke="#bc0000" stroke-width=".437" stroke-opacity=".996"/><path d="M380.145 214.45c-16.393 11.516-32.857 22.937-49.139 34.61 32.68 24.76 65.556 49.262 98.334 73.89.1-47.643.1-95.286 0-142.93l-49.195 34.43z" fill="#4c61a4" stroke="#4c61a4" stroke-width=".218"/></svg>