<?xml version="1.0" standalone="no"?>
<!DOCTYPE svg PUBLIC "-//W3C//DTD SVG 20010904//EN"
 "http://www.w3.org/TR/2001/REC-SVG-20010904/DTD/svg10.dtd">
<svg version="1.0" xmlns="http://www.w3.org/2000/svg"
 width="514.000000pt" height="514.000000pt" viewBox="0 0 514.000000 514.000000"
 preserveAspectRatio="xMidYMid meet">
<metadata>
Created by potrace 1.11, written by Peter Selinger 2001-2013
</metadata>
<g transform="translate(0.000000,514.000000) scale(0.100000,-0.100000)"
fill="#000000" stroke="none">
<path d="M713 4840 c30 -38 110 -137 126 -155 13 -16 161 -196 251 -309 8 -10
20 -23 25 -30 15 -17 128 -155 250 -306 60 -74 114 -140 120 -146 5 -6 26 -30
45 -54 66 -83 265 -325 275 -336 5 -6 21 -26 35 -44 14 -18 32 -40 41 -49 12
-13 87 -104 156 -191 13 -17 126 -155 151 -185 10 -11 46 -56 82 -100 94 -116
93 -114 123 -148 15 -18 37 -45 49 -62 l22 -30 -24 20 c-13 11 -29 23 -35 28
-5 4 -21 17 -35 28 -14 12 -70 58 -125 102 -55 44 -104 85 -110 91 -5 6 -26
23 -45 37 -19 15 -45 35 -57 45 -12 11 -36 30 -53 44 -18 14 -37 30 -44 35 -6
6 -60 51 -121 100 -60 50 -119 98 -130 107 -31 26 -208 171 -315 256 -52 42
-97 79 -100 83 -5 5 -209 172 -334 274 -66 53 -136 110 -166 135 -22 18 -48
39 -273 224 -98 80 -181 146 -185 146 -4 0 -7 -158 -7 -350 l0 -351 42 -32
c23 -17 94 -70 159 -117 64 -47 122 -91 130 -97 7 -7 15 -13 18 -13 3 0 43
-28 89 -62 45 -35 94 -71 107 -80 37 -27 213 -156 225 -166 6 -4 51 -37 100
-72 50 -36 95 -69 102 -75 6 -5 54 -41 108 -80 53 -38 168 -123 256 -188 l160
-118 -159 -127 c-87 -70 -174 -138 -192 -152 -18 -14 -42 -33 -54 -43 -11 -10
-36 -31 -55 -45 -18 -15 -41 -34 -51 -43 -11 -8 -31 -24 -45 -35 -15 -10 -32
-24 -39 -29 -6 -6 -33 -28 -61 -50 -27 -22 -52 -42 -55 -45 -3 -3 -22 -18 -43
-33 -20 -16 -48 -38 -62 -50 -13 -12 -39 -33 -57 -47 -34 -27 -143 -113 -168
-133 -8 -7 -35 -28 -60 -47 -24 -19 -53 -43 -65 -53 -11 -10 -45 -37 -75 -60
-30 -23 -61 -49 -70 -57 -9 -8 -28 -24 -44 -35 -15 -11 -42 -32 -59 -47 -18
-14 -43 -35 -57 -46 l-25 -20 0 -355 0 -355 35 29 c37 30 64 52 149 127 59 52
67 58 137 118 27 23 58 50 70 60 60 53 233 203 258 223 10 9 26 23 35 31 9 9
45 40 81 70 36 29 70 59 75 64 6 6 39 36 75 66 36 30 76 65 90 77 14 12 35 30
46 40 29 25 124 107 150 130 12 10 43 36 69 58 26 22 57 49 69 60 12 11 53 47
91 80 39 33 81 69 95 81 14 12 48 42 76 66 27 23 79 68 114 98 35 30 103 89
150 130 47 41 110 95 140 120 29 25 66 57 83 73 32 30 49 35 41 12 -4 -8 -9
-15 -13 -15 -3 0 -38 -42 -76 -92 -39 -51 -72 -95 -75 -98 -3 -3 -37 -45 -75
-95 -39 -49 -75 -97 -82 -105 -21 -26 -153 -195 -160 -205 -5 -6 -26 -33 -48
-60 -23 -28 -52 -66 -65 -85 -13 -19 -29 -39 -36 -45 -6 -5 -66 -81 -132 -167
-67 -86 -128 -165 -136 -175 -13 -15 -156 -198 -271 -347 -16 -21 -37 -46 -45
-55 -8 -9 -26 -32 -40 -51 -13 -19 -29 -40 -35 -46 -5 -6 -21 -26 -35 -44 -14
-18 -40 -52 -58 -74 -17 -23 -36 -45 -40 -51 -56 -74 -109 -142 -117 -151 -5
-6 -21 -26 -35 -44 -14 -18 -55 -71 -92 -118 -38 -46 -68 -85 -68 -86 0 0 159
-1 353 -1 302 0 355 2 368 15 8 8 36 49 64 90 27 41 52 77 55 80 6 6 160 232
175 258 6 9 16 21 22 25 7 4 13 13 13 18 0 9 43 72 60 89 3 3 10 13 15 22 10
17 45 69 220 323 49 72 136 198 192 280 56 83 106 155 110 160 5 6 22 30 39
55 120 178 121 180 137 162 8 -9 53 -69 100 -132 48 -63 90 -119 94 -125 5 -5
56 -73 113 -150 58 -77 108 -141 113 -143 4 -2 7 -8 7 -14 0 -5 6 -15 13 -22
6 -7 21 -25 32 -40 11 -16 38 -52 60 -81 22 -28 49 -64 60 -79 11 -15 53 -71
93 -124 40 -53 81 -108 90 -121 53 -73 118 -157 127 -163 7 -5 7 -8 0 -8 -5 0
-5 -4 1 -8 7 -4 72 -88 146 -187 l135 -180 356 0 c317 0 355 1 343 15 -7 8
-64 78 -127 155 -62 77 -118 145 -124 151 -5 6 -23 28 -40 49 -16 21 -35 43
-40 49 -6 6 -51 61 -100 121 -49 61 -92 112 -95 115 -7 6 -55 64 -101 121
-131 160 -374 455 -379 459 -3 3 -21 25 -40 50 -19 25 -40 50 -46 55 -6 6 -42
48 -80 95 -38 47 -71 87 -74 90 -3 3 -35 41 -70 85 -36 44 -72 89 -81 100 -10
11 -77 92 -151 181 -73 89 -146 178 -163 198 -31 39 -59 72 -101 119 -13 15
-24 30 -24 33 0 5 75 -50 90 -66 3 -3 25 -21 50 -41 25 -20 55 -45 67 -55 12
-11 30 -26 40 -34 58 -48 129 -106 139 -115 6 -5 30 -26 54 -45 24 -19 71 -58
104 -86 34 -28 153 -127 266 -220 113 -93 210 -173 217 -179 7 -5 18 -15 25
-20 18 -14 197 -162 228 -189 14 -12 47 -39 75 -61 27 -22 63 -52 80 -66 33
-29 232 -193 390 -322 55 -44 102 -84 105 -87 3 -3 30 -25 60 -50 30 -25 57
-47 60 -50 3 -3 41 -35 85 -70 44 -36 82 -68 83 -72 2 -5 9 -8 15 -8 19 0 18
702 -1 713 -26 16 -1537 1150 -1559 1170 l-22 20 132 90 c73 49 173 117 222
150 50 34 92 64 95 67 3 3 30 22 60 43 30 20 66 45 80 55 21 14 298 204 565
386 33 23 62 43 65 46 3 3 30 21 60 42 30 20 113 76 185 126 l130 90 0 355 c0
236 -3 353 -10 348 -50 -37 -151 -117 -153 -123 -2 -5 -10 -8 -17 -8 -7 0 -15
-4 -17 -8 -1 -5 -59 -52 -128 -106 -69 -54 -138 -108 -155 -122 -16 -13 -68
-53 -115 -90 -47 -36 -94 -73 -105 -82 -12 -10 -50 -39 -85 -67 -36 -27 -72
-55 -80 -62 -8 -7 -51 -41 -96 -75 -44 -35 -96 -75 -115 -90 -19 -15 -122 -96
-230 -180 -107 -84 -211 -165 -230 -180 -19 -15 -68 -53 -109 -84 -41 -32 -76
-62 -78 -66 -2 -4 -8 -8 -12 -8 -5 0 -22 -12 -37 -26 -15 -15 -45 -37 -65 -50
-21 -14 -38 -29 -38 -34 0 -6 -6 -10 -14 -10 -8 0 -16 -4 -18 -8 -1 -4 -43
-39 -93 -77 -49 -38 -112 -88 -140 -110 -27 -22 -66 -51 -85 -65 l-35 -24 39
44 c22 25 42 47 45 50 3 3 28 32 56 65 27 33 52 62 55 65 3 3 45 52 95 110 49
58 94 110 100 116 5 6 31 35 57 65 69 80 86 99 131 153 23 27 47 54 52 60 17
19 78 89 130 151 28 32 57 66 65 75 8 8 67 76 130 150 119 140 164 192 190
220 8 9 37 43 64 75 28 33 57 67 65 76 9 9 39 42 66 74 45 54 68 80 169 196
17 20 51 60 76 89 25 30 52 61 60 70 8 9 55 63 104 120 49 58 96 111 105 118
8 6 11 13 5 13 -5 1 -164 2 -354 3 -388 2 -346 10 -417 -79 -40 -50 -379 -475
-396 -495 -6 -8 -28 -35 -47 -60 -19 -25 -44 -56 -56 -70 -13 -14 -160 -197
-328 -408 l-305 -382 -33 44 c-18 24 -40 54 -48 66 -8 12 -20 28 -25 34 -6 6
-35 45 -65 86 -30 41 -60 81 -67 88 -7 7 -13 17 -13 21 0 5 -13 24 -30 42 -16
19 -30 37 -30 41 0 4 -6 13 -12 20 -14 14 -69 87 -108 143 -14 20 -36 51 -50
69 -14 18 -33 44 -43 57 -9 13 -67 92 -127 174 -60 83 -116 159 -124 170 -8
11 -46 61 -83 112 -37 51 -106 144 -153 208 -46 63 -89 116 -95 116 -5 1 -166
2 -357 3 -306 1 -345 -1 -335 -14z"/>
<path d="M1916 4352 c-15 -3 -16 -6 -3 -20 8 -10 146 -214 307 -455 l292 -439
17 26 c13 20 142 187 357 461 162 207 297 381 312 403 l20 27 -642 0 c-353 0
-650 -1 -660 -3z"/>
<path d="M705 2597 l0 -754 30 21 c17 12 32 23 35 26 3 3 28 24 55 45 28 22
52 42 55 45 3 3 25 21 50 40 25 19 52 40 60 47 8 7 133 107 278 222 144 115
269 217 278 225 8 9 19 16 23 16 4 0 24 16 44 35 20 19 39 35 42 35 8 0 55 43
55 50 0 4 -19 20 -42 35 -23 15 -47 32 -52 37 -6 5 -56 40 -111 78 -55 38
-109 76 -120 84 -11 8 -94 66 -185 129 -91 64 -170 119 -176 124 -5 4 -17 13
-26 18 -9 6 -46 31 -83 58 -36 26 -70 47 -75 47 -4 0 -10 3 -12 8 -4 10 -106
82 -116 82 -4 0 -7 -339 -7 -753z"/>
<path d="M4142 3239 c-84 -60 -158 -109 -163 -109 -5 0 -9 -4 -9 -8 0 -4 -15
-16 -32 -27 -18 -10 -38 -24 -45 -29 -32 -28 -43 -36 -48 -36 -5 0 -59 -38
-110 -77 -5 -5 -21 -16 -35 -25 -14 -9 -70 -48 -125 -87 -55 -38 -137 -96
-183 -127 -45 -31 -81 -61 -80 -65 2 -5 55 -47 118 -94 63 -47 122 -91 130
-98 8 -8 51 -40 95 -72 44 -32 84 -62 90 -67 5 -5 62 -47 125 -94 63 -47 129
-96 145 -109 17 -12 82 -62 145 -109 63 -47 120 -89 125 -93 6 -5 15 -12 20
-15 7 -4 10 240 10 723 0 480 -3 729 -10 728 -5 0 -79 -50 -163 -110z"/>
<path d="M2459 1785 c-23 -36 -47 -65 -53 -65 -5 0 -7 -3 -3 -6 3 -3 1 -11 -4
-18 -15 -16 -238 -333 -316 -448 -36 -54 -70 -98 -75 -98 -4 0 -8 -5 -8 -11 0
-6 -18 -36 -40 -67 -22 -31 -46 -65 -53 -76 -6 -10 -26 -37 -42 -60 -17 -22
-38 -52 -46 -66 l-16 -25 703 0 c387 0 704 3 704 7 0 6 -140 209 -265 384 -22
31 -45 65 -51 76 -6 10 -21 30 -33 44 -11 13 -21 26 -21 29 0 5 -64 96 -83
120 -8 10 -77 108 -183 263 -31 45 -60 82 -64 82 -4 0 -27 -29 -51 -65z"/>
</g>
</svg>
